<svg width="200" height="200" viewBox="0 0 200 200" fill="none" xmlns="http://www.w3.org/2000/svg">
<circle cx="100" cy="100" r="100" fill="#D9D9D9"/>
<path d="M118 84.4444H110.956L106.889 80H93.5556L89.4889 84.4444H82.4444C80 84.4444 78 86.4444 78 88.8889V115.556C78 118 80 120 82.4444 120H118C120.444 120 122.444 118 122.444 115.556V88.8889C122.444 86.4444 120.444 84.4444 118 84.4444ZM118 115.556H82.4444V88.8889H91.4444L92.7556 87.4444L95.5111 84.4444H104.933L107.689 87.4444L109 88.8889H118V115.556Z" fill="#888888"/>
<path d="M100.222 111.111C95.3105 111.111 91.3327 107.134 91.3327 102.222H95.7771L90.2216 96.6669L84.666 102.222H89.1105C89.1105 108.356 94.0882 113.334 100.222 113.334C102.133 113.334 103.888 112.8 105.466 111.956L103.822 110.311C102.733 110.822 101.51 111.111 100.222 111.111ZM100.222 91.1113C98.3105 91.1113 96.5549 91.6447 94.9771 92.4891L96.6216 94.1113C97.7105 93.6224 98.9327 93.3335 100.222 93.3335C105.133 93.3335 109.11 97.3113 109.11 102.222H104.666L110.222 107.778L115.777 102.222H111.333C111.333 96.0891 106.355 91.1113 100.222 91.1113Z" fill="#888888"/>
</svg>
