<svg width="41" height="40" viewBox="0 0 41 40" fill="none" xmlns="http://www.w3.org/2000/svg">
<path fill-rule="evenodd" clip-rule="evenodd" d="M27.9615 14.5452C27.9615 16.474 27.1952 18.3239 25.8313 19.6878C24.4674 21.0517 22.6176 21.8179 20.6887 21.8179C18.7599 21.8179 16.91 21.0517 15.5461 19.6878C14.1822 18.3239 13.416 16.474 13.416 14.5452C13.416 12.6163 14.1822 10.7665 15.5461 9.40259C16.91 8.03869 18.7599 7.27246 20.6887 7.27246C22.6176 7.27246 24.4674 8.03869 25.8313 9.40259C27.1952 10.7665 27.9615 12.6163 27.9615 14.5452ZM24.3251 14.5452C24.3251 15.5096 23.942 16.4345 23.26 17.1165C22.5781 17.7984 21.6532 18.1816 20.6887 18.1816C19.7243 18.1816 18.7994 17.7984 18.1174 17.1165C17.4355 16.4345 17.0524 15.5096 17.0524 14.5452C17.0524 13.5808 17.4355 12.6558 18.1174 11.9739C18.7994 11.2919 19.7243 10.9088 20.6887 10.9088C21.6532 10.9088 22.5781 11.2919 23.26 11.9739C23.942 12.6558 24.3251 13.5808 24.3251 14.5452Z" fill="#222222"/>
<path fill-rule="evenodd" clip-rule="evenodd" d="M20.6885 0C9.64302 0 0.688477 8.95455 0.688477 20C0.688477 31.0455 9.64302 40 20.6885 40C31.7339 40 40.6885 31.0455 40.6885 20C40.6885 8.95455 31.7339 0 20.6885 0ZM4.32484 20C4.32484 23.8 5.6212 27.2982 7.79393 30.0764C9.31981 28.0725 11.2883 26.4486 13.5456 25.3315C15.803 24.2143 18.288 23.6342 20.8067 23.6364C23.2927 23.634 25.7465 24.1991 27.9811 25.2887C30.2157 26.3783 32.172 27.9635 33.7012 29.9236C35.2766 27.8575 36.3373 25.4458 36.7956 22.8883C37.2538 20.3308 37.0965 17.701 36.3367 15.2163C35.5768 12.7317 34.2361 10.4637 32.4257 8.60007C30.6153 6.73641 28.3871 5.33065 25.9255 4.49911C23.464 3.66756 20.8397 3.43413 18.27 3.81813C15.7003 4.20214 13.259 5.19253 11.1481 6.70737C9.03711 8.22221 7.31722 10.2179 6.13071 12.5294C4.9442 14.8409 4.32517 17.4018 4.32484 20ZM20.6885 36.3636C16.932 36.3693 13.289 35.077 10.3757 32.7055C11.5483 31.0268 13.1091 29.6562 14.9252 28.7103C16.7413 27.7645 18.759 27.2713 20.8067 27.2727C22.8288 27.2711 24.8221 27.752 26.6211 28.6753C28.4201 29.5987 29.9728 30.9379 31.1503 32.5818C28.2145 35.0304 24.5114 36.369 20.6885 36.3636Z" fill="#222222"/>
</svg>
