<svg width="40" height="40" viewBox="0 0 40 40" fill="none" xmlns="http://www.w3.org/2000/svg">
<path d="M18.9797 26.44C18.9797 24.96 18.5797 23.68 17.7597 22.64C16.5197 21.08 14.0997 20.88 12.6997 21.2C12.1197 17.9 14.9197 13.7 18.5397 11.9L15.7597 8C10.2997 10.6 4.91965 16.56 5.83965 24.1C6.41965 28.86 9.17965 32 13.0797 32C14.7797 32 16.1997 31.5 17.3197 30.5C18.4397 29.5 18.9797 28.14 18.9797 26.44ZM35.0797 26.44C35.0797 24.96 34.6797 23.68 33.8597 22.64C32.5997 21.08 30.1997 20.88 28.7997 21.2C28.2197 17.9 31.0197 13.7 34.6397 11.9L31.8597 8C26.3997 10.6 21.0397 16.56 21.9597 24.1C22.5397 28.86 25.2797 32 29.1797 32C30.8797 32 32.2997 31.5 33.4197 30.5C34.5397 29.5 35.0797 28.14 35.0797 26.44Z" fill="#253DA1"/>
</svg>
