<svg width="23" height="24" viewBox="0 0 23 24" fill="none" xmlns="http://www.w3.org/2000/svg">
<path d="M19.0391 16.9639C18.1234 16.9639 17.3041 17.3253 16.6776 17.8916L8.08728 12.8916C8.14752 12.6145 8.19571 12.3373 8.19571 12.0482C8.19571 11.759 8.14752 11.4819 8.08728 11.2048L16.5813 6.25301C17.2319 6.85542 18.0873 7.22892 19.0391 7.22892C21.0391 7.22892 22.6535 5.61446 22.6535 3.61446C22.6535 1.61446 21.0391 0 19.0391 0C17.0391 0 15.4246 1.61446 15.4246 3.61446C15.4246 3.90361 15.4728 4.18072 15.5331 4.45783L7.03909 9.40964C6.38848 8.80723 5.53306 8.43373 4.58125 8.43373C2.58125 8.43373 0.966797 10.0482 0.966797 12.0482C0.966797 14.0482 2.58125 15.6627 4.58125 15.6627C5.53306 15.6627 6.38848 15.2892 7.03909 14.6867L15.6174 19.6988C15.5572 19.9518 15.521 20.2169 15.521 20.4819C15.521 22.4217 17.0993 24 19.0391 24C20.9788 24 22.5572 22.4217 22.5572 20.4819C22.5572 18.5422 20.9788 16.9639 19.0391 16.9639Z" fill="#333333"/>
</svg>
