<svg width="35" height="43" viewBox="0 0 35 43" fill="none" xmlns="http://www.w3.org/2000/svg">
<path d="M13.5652 23.3253L21.3851 19.5749C21.0109 18.8016 20.4156 18.1567 19.6745 17.722C18.9334 17.2874 18.0799 17.0825 17.2223 17.1334C16.3647 17.1843 15.5414 17.4887 14.857 18.008C14.1725 18.5272 13.6576 19.238 13.3775 20.0502C13.0975 20.8624 13.0648 21.7395 13.2837 22.5703C13.5027 23.4011 13.9633 24.1482 14.6073 24.7169C15.2513 25.2856 16.0496 25.6503 16.9011 25.7648C17.7526 25.8793 18.6189 25.7385 19.3902 25.3601C20.0106 25.0622 20.5513 24.621 20.9675 24.073C21.3837 23.525 21.6636 22.8858 21.7841 22.2082M31.0902 2H21.804C21.804 3.1481 21.348 4.24917 20.5361 5.06099C19.7243 5.87282 18.6232 6.3289 17.4751 6.3289C16.327 6.3289 15.226 5.87282 14.4141 5.06099C13.6023 4.24917 13.1462 3.1481 13.1462 2H3.86005C3.33967 2.01301 2.84498 2.22892 2.48159 2.60163C2.11819 2.97434 1.91488 3.47434 1.91504 3.99488V39.0051C1.91488 39.5257 2.11819 40.0257 2.48159 40.3984C2.84498 40.7711 3.33967 40.987 3.86005 41H13.1462C13.1462 39.8519 13.6023 38.7508 14.4141 37.939C15.226 37.1272 16.327 36.6711 17.4751 36.6711C18.6232 36.6711 19.7243 37.1272 20.5361 37.939C21.348 38.7508 21.804 39.8519 21.804 41H31.0902C31.6193 41 32.1267 40.7898 32.5008 40.4157C32.8749 40.0416 33.0851 39.5342 33.0851 39.0051V3.94501C33.0721 3.42463 32.8562 2.92994 32.4835 2.56655C32.1108 2.20315 31.6108 1.99984 31.0902 2ZM17.4751 30.487C15.6878 30.487 13.9406 29.957 12.4545 28.964C10.9685 27.971 9.81018 26.5596 9.1262 24.9084C8.44222 23.2571 8.26327 21.4401 8.61195 19.6871C8.96064 17.9342 9.82132 16.3239 11.0851 15.0601C12.349 13.7963 13.9592 12.9356 15.7121 12.5869C17.4651 12.2383 19.2821 12.4172 20.9334 13.1012C22.5847 13.7852 23.996 14.9434 24.989 16.4295C25.982 17.9156 26.512 19.6628 26.512 21.4501C26.512 22.6369 26.2782 23.812 25.8241 24.9084C25.3699 26.0048 24.7043 27.001 23.8651 27.8401C23.026 28.6793 22.0298 29.3449 20.9334 29.7991C19.837 30.2532 18.6619 30.487 17.4751 30.487Z" stroke="#4062EC" stroke-width="3" stroke-linecap="round" stroke-linejoin="round"/>
</svg>
