<svg width="42" height="39" viewBox="0 0 42 39" fill="none" xmlns="http://www.w3.org/2000/svg">
<path d="M14.9062 0H24.6562V9.75H14.9062V0ZM0.28125 29.25H10.0312V39H0.28125V29.25ZM0.28125 14.625H10.0312V24.375H0.28125V14.625ZM0.28125 0H10.0312V9.75H0.28125V0ZM29.5312 0H39.2812V9.75H29.5312V0ZM17.3438 33.7838V39H22.4625L37.0387 24.4481L31.8712 19.2806L17.3438 33.7838ZM24.6562 19.5731V14.625H14.9062V24.375H19.8544L24.6562 19.5731ZM41.3531 18.4275L37.9163 14.9906C37.4288 14.5031 36.6731 14.5031 36.1856 14.9906L33.6019 17.5744L38.7694 22.7419L41.3531 20.1581C41.8406 19.6706 41.8406 18.915 41.3531 18.4275Z" fill="#4062EC"/>
</svg>
