<svg width="61" height="60" viewBox="0 0 61 60" fill="none" xmlns="http://www.w3.org/2000/svg">
<circle cx="30.6885" cy="30" r="30" fill="#DD6256"/>
<path d="M20.7485 37.2C19.8551 37.2 19.0285 37.0267 18.2685 36.68C17.5218 36.3333 16.9085 35.8333 16.4285 35.18L17.9085 33.4C18.2951 33.9333 18.7151 34.3333 19.1685 34.6C19.6351 34.8667 20.1418 35 20.6885 35C22.1418 35 22.8685 34.14 22.8685 32.42V25.18H17.8885V23H25.4685V32.28C25.4685 33.9333 25.0618 35.1667 24.2485 35.98C23.4485 36.7933 22.2818 37.2 20.7485 37.2ZM35.6754 37.2C34.582 37.2 33.5754 37.02 32.6554 36.66C31.7354 36.3 30.9354 35.8 30.2554 35.16C29.5754 34.5067 29.0487 33.7467 28.6754 32.88C28.302 32 28.1154 31.04 28.1154 30C28.1154 28.96 28.302 28.0067 28.6754 27.14C29.0487 26.26 29.5754 25.5 30.2554 24.86C30.9354 24.2067 31.7354 23.7 32.6554 23.34C33.5754 22.98 34.5754 22.8 35.6554 22.8C36.7487 22.8 37.7487 22.98 38.6554 23.34C39.5754 23.7 40.3754 24.2067 41.0554 24.86C41.7354 25.5 42.262 26.26 42.6354 27.14C43.0087 28.0067 43.1954 28.96 43.1954 30C43.1954 31.04 43.0087 32 42.6354 32.88C42.262 33.76 41.7354 34.52 41.0554 35.16C40.3754 35.8 39.5754 36.3 38.6554 36.66C37.7487 37.02 36.7554 37.2 35.6754 37.2ZM35.6554 34.92C36.362 34.92 37.0154 34.8 37.6154 34.56C38.2154 34.32 38.7354 33.98 39.1754 33.54C39.6154 33.0867 39.9554 32.5667 40.1954 31.98C40.4487 31.38 40.5754 30.72 40.5754 30C40.5754 29.28 40.4487 28.6267 40.1954 28.04C39.9554 27.44 39.6154 26.92 39.1754 26.48C38.7354 26.0267 38.2154 25.68 37.6154 25.44C37.0154 25.2 36.362 25.08 35.6554 25.08C34.9487 25.08 34.2954 25.2 33.6954 25.44C33.1087 25.68 32.5887 26.0267 32.1354 26.48C31.6954 26.92 31.3487 27.44 31.0954 28.04C30.8554 28.6267 30.7354 29.28 30.7354 30C30.7354 30.7067 30.8554 31.36 31.0954 31.96C31.3487 32.56 31.6954 33.0867 32.1354 33.54C32.5754 33.98 33.0954 34.32 33.6954 34.56C34.2954 34.8 34.9487 34.92 35.6554 34.92Z" fill="white"/>
</svg>
