<svg width="53" height="50" viewBox="0 0 53 50" fill="none" xmlns="http://www.w3.org/2000/svg">
<path d="M10.3716 8.999C12.0281 8.999 13.3711 7.65608 13.3711 5.9995C13.3711 4.34292 12.0281 3 10.3716 3C8.71499 3 7.37207 4.34292 7.37207 5.9995C7.37207 7.65608 8.71499 8.999 10.3716 8.999Z" stroke="#253DA1" stroke-width="2" stroke-miterlimit="10"/>
<path d="M4.37207 18.9975C4.37207 18.9975 5.3719 14.6872 7.37157 13.6874C9.37124 12.6875 11.3709 12.6875 13.3706 13.6874C15.3702 14.6872 16.3701 18.9975 16.3701 18.9975" stroke="#253DA1" stroke-width="2" stroke-miterlimit="10" stroke-linecap="round" stroke-linejoin="round"/>
<path d="M45.3579 18.3213C47.0145 18.3213 48.3574 16.9783 48.3574 15.3218C48.3574 13.6652 47.0145 12.3223 45.3579 12.3223C43.7013 12.3223 42.3584 13.6652 42.3584 15.3218C42.3584 16.9783 43.7013 18.3213 45.3579 18.3213Z" stroke="#253DA1" stroke-width="2" stroke-miterlimit="10"/>
<path d="M39.3584 28.3198C39.3584 28.3198 40.3582 24.0095 42.3579 23.0096C44.3576 22.0098 46.3572 22.0098 48.3569 23.0096C50.3566 24.0095 51.3564 28.3188 51.3564 28.3188" stroke="#253DA1" stroke-width="2" stroke-miterlimit="10" stroke-linecap="round" stroke-linejoin="round"/>
<path d="M19.3628 39.001C21.0194 39.001 22.3623 37.658 22.3623 36.0015C22.3623 34.3449 21.0194 33.002 19.3628 33.002C17.7062 33.002 16.3633 34.3449 16.3633 36.0015C16.3633 37.658 17.7062 39.001 19.3628 39.001Z" stroke="#253DA1" stroke-width="2" stroke-miterlimit="10"/>
<path d="M13.364 49C13.364 49 14.3639 44.6897 16.3635 43.6899C18.3632 42.69 20.3629 42.69 22.3625 43.6899C24.3622 44.6897 25.362 48.999 25.362 48.999M41.9183 9.13464C37.7 4.15847 31.403 1 24.3692 1C21.5997 1 18.9461 1.48992 16.4875 2.38677M28.8015 46.5654C37.0131 44.9617 43.661 38.9897 46.2256 31.166M1.46003 21.9845C1.40203 22.6535 1.373 23.3247 1.37305 23.9962C1.37305 31.9688 5.43037 38.9937 11.5933 43.12" stroke="#253DA1" stroke-width="2" stroke-miterlimit="10" stroke-linecap="round" stroke-linejoin="round"/>
</svg>
