<svg width="49" height="48" viewBox="0 0 49 48" fill="none" xmlns="http://www.w3.org/2000/svg">
<path d="M24.8926 1.5C12.4662 1.5 2.39258 11.5736 2.39258 24C2.39258 36.4264 12.4662 46.5 24.8926 46.5C37.319 46.5 47.3926 36.4264 47.3926 24C47.3926 11.5736 37.319 1.5 24.8926 1.5ZM38.6811 37.7886C35.2621 41.1974 30.6964 43.2112 25.8737 43.4376C21.051 43.664 16.3168 42.0867 12.5934 39.0132C8.87012 35.9397 6.42445 31.59 5.73297 26.8118C5.04149 22.0335 6.15374 17.169 8.853 13.166C11.5523 9.16307 15.6452 6.30842 20.3342 5.15834C25.0232 4.00825 29.9725 4.6451 34.2176 6.94481C38.4627 9.24452 41.6996 13.0423 43.2976 17.5982C44.8955 22.1542 44.74 27.1418 42.8614 31.5893C41.8823 33.9068 40.4626 36.0122 38.6811 37.7886Z" fill="#253DA1"/>
<path d="M15.1426 18.75H18.8926V22.5H15.1426V18.75ZM30.8926 18.75H34.6426V22.5H30.8926V18.75ZM32.6072 28.8C32.027 30.2642 31.0191 31.5196 29.7149 32.4026C28.4107 33.2855 26.8707 33.7551 25.2958 33.75H24.4895C22.9145 33.7551 21.3745 33.2856 20.0702 32.4026C18.766 31.5197 17.758 30.2642 17.1778 28.8L17.0579 28.5H13.8271L14.3926 29.9138C15.1998 31.9318 16.5931 33.6616 18.3929 34.8801C20.1926 36.0986 22.3161 36.7499 24.4895 36.75H25.2958C27.4692 36.7499 29.5927 36.0986 31.3924 34.8801C33.1922 33.6616 34.5855 31.9318 35.3926 29.9138L35.9581 28.5H32.7271L32.6072 28.8Z" fill="#253DA1"/>
</svg>
