<svg width="49" height="48" viewBox="0 0 49 48" fill="none" xmlns="http://www.w3.org/2000/svg">
<path d="M4.24578 22.173C4.2218 21.8968 4.25549 21.6187 4.3447 21.3563C4.43391 21.0939 4.5767 20.8528 4.764 20.6485C4.95131 20.4442 5.17904 20.281 5.43274 20.1694C5.68645 20.0578 5.96059 20.0001 6.23778 20H10.0568C10.5872 20 11.0959 20.2107 11.471 20.5858C11.8461 20.9609 12.0568 21.4696 12.0568 22V41C12.0568 41.5304 11.8461 42.0391 11.471 42.4142C11.0959 42.7893 10.5872 43 10.0568 43H7.89078C7.39021 43.0001 6.90779 42.8125 6.5388 42.4743C6.16981 42.136 5.94108 41.6717 5.89778 41.173L4.24578 22.173ZM18.0568 21.375C18.0568 20.539 18.5768 19.791 19.3318 19.435C20.9808 18.657 23.7898 17.094 25.0568 14.981C26.6898 12.257 26.9978 7.33599 27.0478 6.20899C27.0548 6.05099 27.0508 5.89299 27.0718 5.73699C27.3428 3.78399 31.1118 6.06499 32.5568 8.47699C33.3418 9.78499 33.4418 11.504 33.3598 12.847C33.2708 14.283 32.8498 15.67 32.4368 17.048L31.5568 19.985H42.4138C42.7228 19.985 43.0276 20.0566 43.3043 20.1941C43.581 20.3317 43.822 20.5315 44.0085 20.7779C44.195 21.0243 44.3219 21.3105 44.3792 21.6142C44.4365 21.9178 44.4227 22.2306 44.3388 22.528L38.9688 41.544C38.8502 41.9634 38.5979 42.3326 38.2503 42.5954C37.9026 42.8582 37.4786 43.0003 37.0428 43H20.0568C19.5263 43 19.0176 42.7893 18.6426 42.4142C18.2675 42.0391 18.0568 41.5304 18.0568 41V21.375Z" stroke="#253DA1" stroke-width="4" stroke-linecap="round" stroke-linejoin="round"/>
</svg>
