<svg width="48" height="48" viewBox="0 0 48 48" fill="none" xmlns="http://www.w3.org/2000/svg">
<g clip-path="url(#clip0_1031_280)">
<path d="M40 44.18L44.9 47.16L43.6 41.54L48 37.78L42.22 37.28L40 32L37.74 37.28L32 37.78L36.36 41.54L35 47.16L40 44.18ZM28.16 42H4C2.95085 41.9632 1.95469 41.5299 1.21237 40.7876C0.470055 40.0453 0.0368109 39.0491 0 38L0 10C0.08 7.82 1.82 6.08 4 6H44C46.18 6.08 47.92 7.82 48 10V31.06C46.84 30 45.5 29.22 44 28.68V10H4V38H28.16C28.06 38.66 28 39.32 28 40C28 40.68 28.06 41.36 28.16 42ZM28 34H8V31.5C8 28.18 14.68 26.5 18 26.5C21.32 26.5 28 28.18 28 31.5V34ZM28 22H36V24H28V22ZM18 14C15.26 14 13 16.26 13 19C13 21.74 15.26 24 18 24C20.74 24 23 21.74 23 19C23 16.26 20.74 14 18 14ZM28 18H40V20H28V18ZM28 14H40V16H28V14Z" fill="#253DA1"/>
</g>
<defs>
<clipPath id="clip0_1031_280">
<rect width="48" height="48" fill="white"/>
</clipPath>
</defs>
</svg>
