<svg width="41" height="41" viewBox="0 0 41 41" fill="none" xmlns="http://www.w3.org/2000/svg">
<path d="M20.5003 13.8327C22.3413 13.8327 23.8337 12.3403 23.8337 10.4993C23.8337 8.6584 22.3413 7.16602 20.5003 7.16602C18.6594 7.16602 17.167 8.6584 17.167 10.4993C17.167 12.3403 18.6594 13.8327 20.5003 13.8327Z" fill="#253DA1"/>
<path d="M35.5 27.1667V23.8333C31.7667 23.8333 28.5667 22.2333 26.1667 19.3667L23.9333 16.7C23.6232 16.3241 23.2338 16.0216 22.7929 15.8141C22.352 15.6066 21.8706 15.4994 21.3833 15.5H19.6333C18.65 15.5 17.7167 15.9333 17.0833 16.7L14.85 19.3667C12.4333 22.2333 9.23333 23.8333 5.5 23.8333V27.1667C10.1167 27.1667 14.15 25.2167 17.1667 21.75V25.5L10.7 28.0833C9.58333 28.5333 8.83333 29.6333 8.83333 30.85C8.83333 32.5 10.1667 33.8333 11.8167 33.8333H15.5V33C15.5 31.8949 15.939 30.8351 16.7204 30.0537C17.5018 29.2723 18.5616 28.8333 19.6667 28.8333H24.6667C25.1333 28.8333 25.5 29.2 25.5 29.6667C25.5 30.1333 25.1333 30.5 24.6667 30.5H19.6667C18.2833 30.5 17.1667 31.6167 17.1667 33V33.8333H29.1833C30.8333 33.8333 32.1667 32.5 32.1667 30.85C32.1667 29.6333 31.4167 28.5333 30.3 28.0833L23.8333 25.5V21.75C26.85 25.2167 30.8833 27.1667 35.5 27.1667Z" fill="#253DA1"/>
</svg>
